<mxfile host="app.diagrams.net" modified="2024-04-22T14:08:51.583Z" agent="Mozilla/5.0 (X11; Linux x86_64) AppleWebKit/537.36 (KHTML, like Gecko) Chrome/123.0.0.0 Safari/537.36" etag="j9WtAcmDOwGHq-0Zj9xC" version="24.2.7" type="google">
  <diagram id="R2lEEEUBdFMjLlhIrx00" name="Page-1">
    <mxGraphModel grid="1" page="1" gridSize="10" guides="1" tooltips="1" connect="1" arrows="1" fold="1" pageScale="1" pageWidth="850" pageHeight="1100" math="0" shadow="0" extFonts="Permanent Marker^https://fonts.googleapis.com/css?family=Permanent+Marker">
      <root>
        <mxCell id="0" />
        <mxCell id="1" parent="0" />
        <mxCell id="edTjm4dISCqz6r1TiSTo-98" value="" style="group" connectable="0" vertex="1" parent="1">
          <mxGeometry x="152.63" y="122" width="498.75" height="90" as="geometry" />
        </mxCell>
        <mxCell id="edTjm4dISCqz6r1TiSTo-96" value="" style="rounded=0;whiteSpace=wrap;html=1;" vertex="1" parent="edTjm4dISCqz6r1TiSTo-98">
          <mxGeometry y="25.522388059701488" width="460.3846153846154" height="64.4776119402985" as="geometry" />
        </mxCell>
        <mxCell id="edTjm4dISCqz6r1TiSTo-97" value="Missão" style="text;html=1;align=center;verticalAlign=middle;resizable=1;points=[];autosize=1;strokeColor=none;fillColor=none;movable=1;rotatable=1;deletable=1;editable=1;locked=0;connectable=1;" vertex="1" parent="edTjm4dISCqz6r1TiSTo-98">
          <mxGeometry x="328.7476923076923" y="2.5199999999999996" width="60" height="30" as="geometry" />
        </mxCell>
        <mxCell id="MHSS6djbWjyrjED063CA-1" value="Cachorro" style="whiteSpace=wrap;html=1;" vertex="1" parent="1">
          <mxGeometry x="-131.25" y="54.129999999999995" width="82.5" height="40" as="geometry" />
        </mxCell>
        <mxCell id="PZfGzbShFNdAoiEEgzWy-10" value="Ouro" style="whiteSpace=wrap;html=1;" vertex="1" parent="1">
          <mxGeometry x="1203.5" y="300" width="85" height="40" as="geometry" />
        </mxCell>
        <mxCell id="PZfGzbShFNdAoiEEgzWy-11" value="Coiote" style="whiteSpace=wrap;html=1;" vertex="1" parent="1">
          <mxGeometry x="-316.25" y="54.129999999999995" width="80" height="40" as="geometry" />
        </mxCell>
        <mxCell id="PZfGzbShFNdAoiEEgzWy-12" value="Bandagem" style="whiteSpace=wrap;html=1;" vertex="1" parent="1">
          <mxGeometry x="1091" y="300" width="100" height="40" as="geometry" />
        </mxCell>
        <mxCell id="PZfGzbShFNdAoiEEgzWy-14" value="Dinamite" style="whiteSpace=wrap;html=1;" vertex="1" parent="1">
          <mxGeometry x="1401" y="300" width="80" height="40" as="geometry" />
        </mxCell>
        <mxCell id="MHSS6djbWjyrjED063CA-3" value="Coelho" style="whiteSpace=wrap;html=1;" vertex="1" parent="1">
          <mxGeometry x="-226.25" y="54.129999999999995" width="80" height="40" as="geometry" />
        </mxCell>
        <mxCell id="MHSS6djbWjyrjED063CA-5" value="Carroça" style="whiteSpace=wrap;html=1;" vertex="1" parent="1">
          <mxGeometry x="140.87" y="54.13" width="95" height="40" as="geometry" />
        </mxCell>
        <mxCell id="MHSS6djbWjyrjED063CA-6" value="Cavalo" style="whiteSpace=wrap;html=1;" vertex="1" parent="1">
          <mxGeometry x="-41.25" y="54.129999999999995" width="85" height="40" as="geometry" />
        </mxCell>
        <mxCell id="MHSS6djbWjyrjED063CA-7" value="Item" style="whiteSpace=wrap;html=1;" vertex="1" parent="1">
          <mxGeometry x="1250" y="160" width="90" height="42" as="geometry" />
        </mxCell>
        <mxCell id="yV0FYIFKv9BxsQTMN04u-23" value="Dinheiro" style="whiteSpace=wrap;html=1;" vertex="1" parent="1">
          <mxGeometry x="990" y="301" width="80" height="39" as="geometry" />
        </mxCell>
        <mxCell id="MHSS6djbWjyrjED063CA-9" value="Consumível" style="whiteSpace=wrap;html=1;" vertex="1" parent="1">
          <mxGeometry x="1301" y="301" width="90" height="39" as="geometry" />
        </mxCell>
        <mxCell id="MHSS6djbWjyrjED063CA-10" value="Cigarro" style="whiteSpace=wrap;html=1;" vertex="1" parent="1">
          <mxGeometry x="1305.5" y="431.25" width="81" height="37.5" as="geometry" />
        </mxCell>
        <mxCell id="MHSS6djbWjyrjED063CA-12" value="Cerveja" style="whiteSpace=wrap;html=1;" vertex="1" parent="1">
          <mxGeometry x="1220" y="430.63" width="67" height="37.5" as="geometry" />
        </mxCell>
        <mxCell id="MHSS6djbWjyrjED063CA-13" value="Café" style="whiteSpace=wrap;html=1;" vertex="1" parent="1">
          <mxGeometry x="1401" y="431.25" width="70" height="38.75" as="geometry" />
        </mxCell>
        <mxCell id="MHSS6djbWjyrjED063CA-14" value="Animal" style="whiteSpace=wrap;html=1;" vertex="1" parent="1">
          <mxGeometry x="-181.25" y="-92.12" width="75" height="40" as="geometry" />
        </mxCell>
        <mxCell id="NFgqACAjN6bbBUPU2ulZ-4" value="Roupa" style="whiteSpace=wrap;html=1;" vertex="1" parent="1">
          <mxGeometry x="1500" y="301" width="70" height="39" as="geometry" />
        </mxCell>
        <mxCell id="edTjm4dISCqz6r1TiSTo-13" value="Inventário" style="shape=ext;margin=3;double=1;whiteSpace=wrap;html=1;align=center;" vertex="1" parent="1">
          <mxGeometry x="830" y="161" width="120" height="40" as="geometry" />
        </mxCell>
        <mxCell id="edTjm4dISCqz6r1TiSTo-19" value="Personagem" style="whiteSpace=wrap;html=1;align=center;" vertex="1" parent="1">
          <mxGeometry x="505" y="160" width="100" height="40" as="geometry" />
        </mxCell>
        <mxCell id="edTjm4dISCqz6r1TiSTo-20" value="possui" style="shape=rhombus;perimeter=rhombusPerimeter;whiteSpace=wrap;html=1;align=center;" vertex="1" parent="1">
          <mxGeometry x="652" y="150" width="120" height="60" as="geometry" />
        </mxCell>
        <mxCell id="edTjm4dISCqz6r1TiSTo-21" value="" style="endArrow=none;html=1;rounded=0;exitX=1;exitY=0.5;exitDx=0;exitDy=0;entryX=0;entryY=0.5;entryDx=0;entryDy=0;" edge="1" parent="1" source="edTjm4dISCqz6r1TiSTo-19" target="edTjm4dISCqz6r1TiSTo-20">
          <mxGeometry relative="1" as="geometry">
            <mxPoint x="700" y="170" as="sourcePoint" />
            <mxPoint x="860" y="170" as="targetPoint" />
          </mxGeometry>
        </mxCell>
        <mxCell id="edTjm4dISCqz6r1TiSTo-22" value="1" style="resizable=0;html=1;whiteSpace=wrap;align=right;verticalAlign=bottom;" connectable="0" vertex="1" parent="edTjm4dISCqz6r1TiSTo-21">
          <mxGeometry x="1" relative="1" as="geometry" />
        </mxCell>
        <mxCell id="edTjm4dISCqz6r1TiSTo-23" value="" style="endArrow=none;html=1;rounded=0;exitX=1;exitY=0.5;exitDx=0;exitDy=0;entryX=0;entryY=0.5;entryDx=0;entryDy=0;" edge="1" parent="1" source="edTjm4dISCqz6r1TiSTo-20" target="edTjm4dISCqz6r1TiSTo-13">
          <mxGeometry relative="1" as="geometry">
            <mxPoint x="830" y="170" as="sourcePoint" />
            <mxPoint x="990" y="170" as="targetPoint" />
          </mxGeometry>
        </mxCell>
        <mxCell id="edTjm4dISCqz6r1TiSTo-24" value="1" style="resizable=0;html=1;whiteSpace=wrap;align=right;verticalAlign=bottom;" connectable="0" vertex="1" parent="edTjm4dISCqz6r1TiSTo-23">
          <mxGeometry x="1" relative="1" as="geometry" />
        </mxCell>
        <mxCell id="W9NuQ4Psg400-CG8Jt55-5" value="&lt;font style=&quot;font-size: 11px;&quot;&gt;Transporte&lt;/font&gt;" style="whiteSpace=wrap;html=1;align=center;" vertex="1" parent="1">
          <mxGeometry x="148.37" y="-85.13" width="80" height="40" as="geometry" />
        </mxCell>
        <mxCell id="edTjm4dISCqz6r1TiSTo-25" value="Gangue" style="whiteSpace=wrap;html=1;align=center;" vertex="1" parent="1">
          <mxGeometry x="495" y="-92.12" width="120" height="40" as="geometry" />
        </mxCell>
        <mxCell id="edTjm4dISCqz6r1TiSTo-26" value="participa" style="shape=rhombus;perimeter=rhombusPerimeter;whiteSpace=wrap;html=1;align=center;" vertex="1" parent="1">
          <mxGeometry x="495" y="-5.869999999999997" width="120" height="60" as="geometry" />
        </mxCell>
        <mxCell id="edTjm4dISCqz6r1TiSTo-35" value="" style="endArrow=none;html=1;rounded=0;exitX=0.5;exitY=1;exitDx=0;exitDy=0;entryX=0.5;entryY=0;entryDx=0;entryDy=0;" edge="1" parent="1" source="edTjm4dISCqz6r1TiSTo-26" target="edTjm4dISCqz6r1TiSTo-19">
          <mxGeometry relative="1" as="geometry">
            <mxPoint x="720" y="110" as="sourcePoint" />
            <mxPoint x="880" y="110" as="targetPoint" />
          </mxGeometry>
        </mxCell>
        <mxCell id="edTjm4dISCqz6r1TiSTo-36" value="N" style="resizable=0;html=1;whiteSpace=wrap;align=right;verticalAlign=bottom;" connectable="0" vertex="1" parent="edTjm4dISCqz6r1TiSTo-35">
          <mxGeometry x="1" relative="1" as="geometry" />
        </mxCell>
        <mxCell id="edTjm4dISCqz6r1TiSTo-37" value="" style="endArrow=none;html=1;rounded=0;exitX=0.5;exitY=1;exitDx=0;exitDy=0;entryX=0.5;entryY=0;entryDx=0;entryDy=0;" edge="1" parent="1" source="edTjm4dISCqz6r1TiSTo-25" target="edTjm4dISCqz6r1TiSTo-26">
          <mxGeometry relative="1" as="geometry">
            <mxPoint x="690" y="-70" as="sourcePoint" />
            <mxPoint x="850" y="-70" as="targetPoint" />
          </mxGeometry>
        </mxCell>
        <mxCell id="edTjm4dISCqz6r1TiSTo-38" value="1" style="resizable=0;html=1;whiteSpace=wrap;align=right;verticalAlign=bottom;" connectable="0" vertex="1" parent="edTjm4dISCqz6r1TiSTo-37">
          <mxGeometry x="1" relative="1" as="geometry" />
        </mxCell>
        <mxCell id="7i5WLGqGZnLkVZAE3K9o-4" value="&lt;font style=&quot;font-size: 10px;&quot;&gt;Contém&lt;/font&gt;" style="shape=rhombus;perimeter=rhombusPerimeter;whiteSpace=wrap;html=1;align=center;" vertex="1" parent="1">
          <mxGeometry x="1500" y="574.38" width="77.5" height="50" as="geometry" />
        </mxCell>
        <mxCell id="edTjm4dISCqz6r1TiSTo-55" value="Jogador" style="whiteSpace=wrap;html=1;align=center;" vertex="1" parent="1">
          <mxGeometry x="286.25" y="629.94" width="100" height="40" as="geometry" />
        </mxCell>
        <mxCell id="edTjm4dISCqz6r1TiSTo-56" value="NPC" style="whiteSpace=wrap;html=1;align=center;" vertex="1" parent="1">
          <mxGeometry x="-20" y="630.88" width="100" height="40" as="geometry" />
        </mxCell>
        <mxCell id="7i5WLGqGZnLkVZAE3K9o-9" value="" style="endArrow=none;html=1;rounded=0;entryX=0.5;entryY=1;entryDx=0;entryDy=0;exitX=1;exitY=0.5;exitDx=0;exitDy=0;" edge="1" parent="1" source="zVHzj3ecezakpNuDU_De-9" target="MHSS6djbWjyrjED063CA-14">
          <mxGeometry width="50" height="50" relative="1" as="geometry">
            <mxPoint x="-143.75" y="-25.86999999999989" as="sourcePoint" />
            <mxPoint x="-58.75" y="-75.87" as="targetPoint" />
          </mxGeometry>
        </mxCell>
        <mxCell id="7i5WLGqGZnLkVZAE3K9o-10" value="" style="endArrow=none;html=1;rounded=0;exitX=0.5;exitY=0;exitDx=0;exitDy=0;entryX=-0.008;entryY=-0.007;entryDx=0;entryDy=0;entryPerimeter=0;" edge="1" parent="1" source="PZfGzbShFNdAoiEEgzWy-11" target="zVHzj3ecezakpNuDU_De-9">
          <mxGeometry width="50" height="50" relative="1" as="geometry">
            <mxPoint x="-130.75" y="-5.8700000000000045" as="sourcePoint" />
            <mxPoint x="-154.47500000000014" y="-0.33999999999991815" as="targetPoint" />
            <Array as="points">
              <mxPoint x="-276" />
            </Array>
          </mxGeometry>
        </mxCell>
        <mxCell id="7i5WLGqGZnLkVZAE3K9o-11" value="" style="endArrow=none;html=1;rounded=0;entryX=0;entryY=0.25;entryDx=0;entryDy=0;exitX=0.5;exitY=0;exitDx=0;exitDy=0;" edge="1" parent="1" source="MHSS6djbWjyrjED063CA-3" target="zVHzj3ecezakpNuDU_De-9">
          <mxGeometry width="50" height="50" relative="1" as="geometry">
            <mxPoint x="-141.53999999999996" y="24.129999999999995" as="sourcePoint" />
            <mxPoint x="-150" y="4.130000000000109" as="targetPoint" />
            <Array as="points">
              <mxPoint x="-186" y="30" />
              <mxPoint x="-150" y="30" />
            </Array>
          </mxGeometry>
        </mxCell>
        <mxCell id="7i5WLGqGZnLkVZAE3K9o-12" value="" style="endArrow=none;html=1;rounded=0;entryX=0;entryY=0.75;entryDx=0;entryDy=0;exitX=0.5;exitY=0;exitDx=0;exitDy=0;" edge="1" parent="1" source="MHSS6djbWjyrjED063CA-1" target="zVHzj3ecezakpNuDU_De-9">
          <mxGeometry width="50" height="50" relative="1" as="geometry">
            <mxPoint x="-110.75" y="14.129999999999995" as="sourcePoint" />
            <mxPoint x="-137.5" y="4.130000000000109" as="targetPoint" />
            <Array as="points">
              <mxPoint x="-90" y="30" />
              <mxPoint x="-137" y="30" />
            </Array>
          </mxGeometry>
        </mxCell>
        <mxCell id="7i5WLGqGZnLkVZAE3K9o-13" value="" style="endArrow=none;html=1;rounded=0;exitX=0.478;exitY=0.023;exitDx=0;exitDy=0;entryX=0.021;entryY=0.944;entryDx=0;entryDy=0;entryPerimeter=0;exitPerimeter=0;" edge="1" parent="1" source="MHSS6djbWjyrjED063CA-6" target="zVHzj3ecezakpNuDU_De-9">
          <mxGeometry width="50" height="50" relative="1" as="geometry">
            <mxPoint x="-100.75" y="24.129999999999995" as="sourcePoint" />
            <mxPoint x="-133.92499999999995" y="-0.9099999999998545" as="targetPoint" />
            <Array as="points">
              <mxPoint />
            </Array>
          </mxGeometry>
        </mxCell>
        <mxCell id="edTjm4dISCqz6r1TiSTo-70" value="" style="endArrow=none;html=1;rounded=0;exitX=0.5;exitY=0;exitDx=0;exitDy=0;entryX=0;entryY=0.25;entryDx=0;entryDy=0;" edge="1" parent="1" source="edTjm4dISCqz6r1TiSTo-52" target="edTjm4dISCqz6r1TiSTo-68">
          <mxGeometry width="50" height="50" relative="1" as="geometry">
            <mxPoint x="527.5" y="501" as="sourcePoint" />
            <mxPoint x="545" y="460" as="targetPoint" />
            <Array as="points">
              <mxPoint x="400" y="520" />
            </Array>
          </mxGeometry>
        </mxCell>
        <mxCell id="edTjm4dISCqz6r1TiSTo-77" value="utiliza" style="shape=rhombus;perimeter=rhombusPerimeter;whiteSpace=wrap;html=1;align=center;" vertex="1" parent="1">
          <mxGeometry x="495" y="252" width="120" height="60" as="geometry" />
        </mxCell>
        <mxCell id="edTjm4dISCqz6r1TiSTo-78" value="" style="endArrow=none;html=1;rounded=0;exitX=0.5;exitY=1;exitDx=0;exitDy=0;entryX=0.5;entryY=0;entryDx=0;entryDy=0;" edge="1" parent="1" source="edTjm4dISCqz6r1TiSTo-19" target="edTjm4dISCqz6r1TiSTo-77">
          <mxGeometry relative="1" as="geometry">
            <mxPoint x="760" y="350" as="sourcePoint" />
            <mxPoint x="920" y="350" as="targetPoint" />
          </mxGeometry>
        </mxCell>
        <mxCell id="edTjm4dISCqz6r1TiSTo-79" value="N" style="resizable=0;html=1;whiteSpace=wrap;align=right;verticalAlign=bottom;" connectable="0" vertex="1" parent="edTjm4dISCqz6r1TiSTo-78">
          <mxGeometry x="1" relative="1" as="geometry" />
        </mxCell>
        <mxCell id="edTjm4dISCqz6r1TiSTo-80" value="" style="endArrow=none;html=1;rounded=0;exitX=0.5;exitY=1;exitDx=0;exitDy=0;entryX=0.5;entryY=0;entryDx=0;entryDy=0;" edge="1" parent="1" source="edTjm4dISCqz6r1TiSTo-77" target="edTjm4dISCqz6r1TiSTo-39">
          <mxGeometry relative="1" as="geometry">
            <mxPoint x="640" y="500" as="sourcePoint" />
            <mxPoint x="800" y="500" as="targetPoint" />
          </mxGeometry>
        </mxCell>
        <mxCell id="edTjm4dISCqz6r1TiSTo-81" value="N" style="resizable=0;html=1;whiteSpace=wrap;align=right;verticalAlign=bottom;" connectable="0" vertex="1" parent="edTjm4dISCqz6r1TiSTo-80">
          <mxGeometry x="1" relative="1" as="geometry" />
        </mxCell>
        <mxCell id="edTjm4dISCqz6r1TiSTo-84" value="" style="endArrow=none;html=1;rounded=0;exitX=0;exitY=1;exitDx=0;exitDy=0;entryX=1;entryY=0.5;entryDx=0;entryDy=0;" edge="1" parent="1" source="edTjm4dISCqz6r1TiSTo-19" target="z2NVu-qd8Vl8eLiHw5Hi-45">
          <mxGeometry relative="1" as="geometry">
            <mxPoint x="610" y="230" as="sourcePoint" />
            <mxPoint x="351" y="300" as="targetPoint" />
          </mxGeometry>
        </mxCell>
        <mxCell id="edTjm4dISCqz6r1TiSTo-86" value="" style="endArrow=none;html=1;rounded=0;entryX=0.5;entryY=0;entryDx=0;entryDy=0;exitX=0.018;exitY=0.998;exitDx=0;exitDy=0;exitPerimeter=0;" edge="1" parent="1" source="z2NVu-qd8Vl8eLiHw5Hi-45" target="edTjm4dISCqz6r1TiSTo-55">
          <mxGeometry relative="1" as="geometry">
            <mxPoint x="290" y="440" as="sourcePoint" />
            <mxPoint x="854" y="293.13" as="targetPoint" />
            <Array as="points">
              <mxPoint x="290" y="550" />
              <mxPoint x="336" y="550" />
            </Array>
          </mxGeometry>
        </mxCell>
        <mxCell id="edTjm4dISCqz6r1TiSTo-87" value="" style="endArrow=none;html=1;rounded=0;entryX=0.697;entryY=-0.061;entryDx=0;entryDy=0;exitX=-0.002;exitY=-0.002;exitDx=0;exitDy=0;exitPerimeter=0;entryPerimeter=0;" edge="1" parent="1" source="z2NVu-qd8Vl8eLiHw5Hi-45" target="edTjm4dISCqz6r1TiSTo-56">
          <mxGeometry relative="1" as="geometry">
            <mxPoint x="240" y="430" as="sourcePoint" />
            <mxPoint x="824" y="283.13" as="targetPoint" />
            <Array as="points">
              <mxPoint x="260" y="550" />
              <mxPoint x="50" y="550" />
            </Array>
          </mxGeometry>
        </mxCell>
        <mxCell id="edTjm4dISCqz6r1TiSTo-88" value="confrontar" style="shape=rhombus;perimeter=rhombusPerimeter;whiteSpace=wrap;html=1;align=center;" vertex="1" parent="1">
          <mxGeometry x="690" y="-105.13" width="120" height="60" as="geometry" />
        </mxCell>
        <mxCell id="edTjm4dISCqz6r1TiSTo-89" value="" style="endArrow=none;html=1;rounded=0;exitX=1;exitY=0.5;exitDx=0;exitDy=0;entryX=0.5;entryY=0;entryDx=0;entryDy=0;" edge="1" parent="1" source="edTjm4dISCqz6r1TiSTo-25" target="edTjm4dISCqz6r1TiSTo-88">
          <mxGeometry relative="1" as="geometry">
            <mxPoint x="700" y="-140" as="sourcePoint" />
            <mxPoint x="860" y="-140" as="targetPoint" />
          </mxGeometry>
        </mxCell>
        <mxCell id="W9NuQ4Psg400-CG8Jt55-1" value="Mapa" style="whiteSpace=wrap;html=1;align=center;" vertex="1" parent="1">
          <mxGeometry x="1620" y="576.88" width="80" height="45" as="geometry" />
        </mxCell>
        <mxCell id="7i5WLGqGZnLkVZAE3K9o-7" value="&lt;font style=&quot;font-size: 10px;&quot;&gt;abriga&lt;/font&gt;" style="shape=rhombus;perimeter=rhombusPerimeter;whiteSpace=wrap;html=1;align=center;" vertex="1" parent="1">
          <mxGeometry x="1260" y="574.38" width="85" height="50" as="geometry" />
        </mxCell>
        <mxCell id="edTjm4dISCqz6r1TiSTo-90" value="" style="endArrow=none;html=1;rounded=0;exitX=1;exitY=0.5;exitDx=0;exitDy=0;entryX=0.5;entryY=1;entryDx=0;entryDy=0;" edge="1" parent="1" source="edTjm4dISCqz6r1TiSTo-25" target="edTjm4dISCqz6r1TiSTo-88">
          <mxGeometry relative="1" as="geometry">
            <mxPoint x="690" y="-160" as="sourcePoint" />
            <mxPoint x="850" y="-160" as="targetPoint" />
          </mxGeometry>
        </mxCell>
        <mxCell id="edTjm4dISCqz6r1TiSTo-91" value="Desafio" style="whiteSpace=wrap;html=1;align=center;" vertex="1" parent="1">
          <mxGeometry x="162.5" y="160" width="100" height="40" as="geometry" />
        </mxCell>
        <mxCell id="edTjm4dISCqz6r1TiSTo-93" value="aceitar" style="shape=rhombus;perimeter=rhombusPerimeter;whiteSpace=wrap;html=1;align=center;" vertex="1" parent="1">
          <mxGeometry x="317" y="150" width="120" height="60" as="geometry" />
        </mxCell>
        <mxCell id="edTjm4dISCqz6r1TiSTo-94" value="" style="endArrow=none;html=1;rounded=0;exitX=1;exitY=0.5;exitDx=0;exitDy=0;entryX=0;entryY=0.5;entryDx=0;entryDy=0;" edge="1" parent="1" source="edTjm4dISCqz6r1TiSTo-93" target="edTjm4dISCqz6r1TiSTo-19">
          <mxGeometry relative="1" as="geometry">
            <mxPoint x="420" y="250" as="sourcePoint" />
            <mxPoint x="580" y="250" as="targetPoint" />
          </mxGeometry>
        </mxCell>
        <mxCell id="edTjm4dISCqz6r1TiSTo-95" value="" style="endArrow=none;html=1;rounded=0;exitX=1;exitY=0.5;exitDx=0;exitDy=0;entryX=0;entryY=0.5;entryDx=0;entryDy=0;" edge="1" parent="1" source="edTjm4dISCqz6r1TiSTo-91" target="edTjm4dISCqz6r1TiSTo-93">
          <mxGeometry relative="1" as="geometry">
            <mxPoint x="290" y="290" as="sourcePoint" />
            <mxPoint x="450" y="290" as="targetPoint" />
          </mxGeometry>
        </mxCell>
        <mxCell id="edTjm4dISCqz6r1TiSTo-101" value="depende" style="shape=rhombus;perimeter=rhombusPerimeter;whiteSpace=wrap;html=1;align=center;" vertex="1" parent="1">
          <mxGeometry x="-10" y="152" width="120" height="60" as="geometry" />
        </mxCell>
        <mxCell id="edTjm4dISCqz6r1TiSTo-102" value="" style="endArrow=none;html=1;rounded=0;entryX=0;entryY=0.5;entryDx=0;entryDy=0;exitX=0.5;exitY=0;exitDx=0;exitDy=0;" edge="1" parent="1" source="edTjm4dISCqz6r1TiSTo-101" target="edTjm4dISCqz6r1TiSTo-96">
          <mxGeometry relative="1" as="geometry">
            <mxPoint x="30" y="110" as="sourcePoint" />
            <mxPoint x="190" y="110" as="targetPoint" />
          </mxGeometry>
        </mxCell>
        <mxCell id="edTjm4dISCqz6r1TiSTo-103" value="" style="endArrow=none;html=1;rounded=0;exitX=0.5;exitY=1;exitDx=0;exitDy=0;entryX=0;entryY=0.5;entryDx=0;entryDy=0;" edge="1" parent="1" source="edTjm4dISCqz6r1TiSTo-101" target="edTjm4dISCqz6r1TiSTo-96">
          <mxGeometry relative="1" as="geometry">
            <mxPoint x="50" y="240" as="sourcePoint" />
            <mxPoint x="210" y="240" as="targetPoint" />
          </mxGeometry>
        </mxCell>
        <mxCell id="zrA66kBHLIKpK4oijakD-1" value="Contém" style="shape=rhombus;perimeter=rhombusPerimeter;whiteSpace=wrap;html=1;align=center;" vertex="1" parent="1">
          <mxGeometry x="1050" y="150" width="116.25" height="60" as="geometry" />
        </mxCell>
        <mxCell id="edTjm4dISCqz6r1TiSTo-104" value="dialoga" style="shape=rhombus;perimeter=rhombusPerimeter;whiteSpace=wrap;html=1;align=center;" vertex="1" parent="1">
          <mxGeometry x="128.37" y="619.9399999999999" width="120" height="60" as="geometry" />
        </mxCell>
        <mxCell id="zrA66kBHLIKpK4oijakD-2" value="" style="endArrow=none;html=1;rounded=0;exitX=1;exitY=0.5;exitDx=0;exitDy=0;entryX=0;entryY=0.5;entryDx=0;entryDy=0;" edge="1" parent="1" source="edTjm4dISCqz6r1TiSTo-13" target="zrA66kBHLIKpK4oijakD-1">
          <mxGeometry relative="1" as="geometry">
            <mxPoint x="1090" y="270" as="sourcePoint" />
            <mxPoint x="1250" y="270" as="targetPoint" />
          </mxGeometry>
        </mxCell>
        <mxCell id="zrA66kBHLIKpK4oijakD-3" value="" style="endArrow=none;html=1;rounded=0;entryX=0;entryY=0.5;entryDx=0;entryDy=0;exitX=1;exitY=0.5;exitDx=0;exitDy=0;" edge="1" parent="1">
          <mxGeometry relative="1" as="geometry">
            <mxPoint x="1167.25" y="180" as="sourcePoint" />
            <mxPoint x="1251" y="181" as="targetPoint" />
          </mxGeometry>
        </mxCell>
        <mxCell id="edTjm4dISCqz6r1TiSTo-105" value="" style="endArrow=none;html=1;rounded=0;exitX=0;exitY=0.5;exitDx=0;exitDy=0;entryX=1;entryY=0.5;entryDx=0;entryDy=0;" edge="1" parent="1" source="edTjm4dISCqz6r1TiSTo-55" target="edTjm4dISCqz6r1TiSTo-104">
          <mxGeometry relative="1" as="geometry">
            <mxPoint x="224" y="403.13" as="sourcePoint" />
            <mxPoint x="384" y="403.13" as="targetPoint" />
          </mxGeometry>
        </mxCell>
        <mxCell id="zrA66kBHLIKpK4oijakD-4" value="" style="endArrow=none;html=1;rounded=0;entryX=0.5;entryY=1;entryDx=0;entryDy=0;" edge="1" parent="1">
          <mxGeometry relative="1" as="geometry">
            <mxPoint x="1296" y="230" as="sourcePoint" />
            <mxPoint x="1296" y="202" as="targetPoint" />
          </mxGeometry>
        </mxCell>
        <mxCell id="edTjm4dISCqz6r1TiSTo-106" value="" style="endArrow=none;html=1;rounded=0;exitX=0;exitY=0.5;exitDx=0;exitDy=0;entryX=1;entryY=0.5;entryDx=0;entryDy=0;" edge="1" parent="1" source="edTjm4dISCqz6r1TiSTo-104" target="edTjm4dISCqz6r1TiSTo-56">
          <mxGeometry relative="1" as="geometry">
            <mxPoint x="804" y="403.13" as="sourcePoint" />
            <mxPoint x="964" y="403.13" as="targetPoint" />
          </mxGeometry>
        </mxCell>
        <mxCell id="zrA66kBHLIKpK4oijakD-5" value="" style="triangle;whiteSpace=wrap;html=1;direction=north;" vertex="1" parent="1">
          <mxGeometry x="1276" y="223.75" width="40" height="30" as="geometry" />
        </mxCell>
        <mxCell id="edTjm4dISCqz6r1TiSTo-109" value="propõe" style="shape=rhombus;perimeter=rhombusPerimeter;whiteSpace=wrap;html=1;align=center;" vertex="1" parent="1">
          <mxGeometry x="-30" y="370" width="120" height="60" as="geometry" />
        </mxCell>
        <mxCell id="edTjm4dISCqz6r1TiSTo-112" value="" style="endArrow=none;html=1;rounded=0;exitX=0.5;exitY=1;exitDx=0;exitDy=0;entryX=0.5;entryY=0;entryDx=0;entryDy=0;" edge="1" parent="1" source="edTjm4dISCqz6r1TiSTo-109" target="edTjm4dISCqz6r1TiSTo-56">
          <mxGeometry relative="1" as="geometry">
            <mxPoint x="180" y="310" as="sourcePoint" />
            <mxPoint x="340" y="310" as="targetPoint" />
          </mxGeometry>
        </mxCell>
        <mxCell id="edTjm4dISCqz6r1TiSTo-113" value="" style="endArrow=none;html=1;rounded=0;exitX=0.5;exitY=1;exitDx=0;exitDy=0;entryX=1;entryY=0.5;entryDx=0;entryDy=0;" edge="1" parent="1" source="edTjm4dISCqz6r1TiSTo-91" target="edTjm4dISCqz6r1TiSTo-109">
          <mxGeometry relative="1" as="geometry">
            <mxPoint x="260" y="220" as="sourcePoint" />
            <mxPoint x="420" y="220" as="targetPoint" />
            <Array as="points">
              <mxPoint x="213" y="400" />
            </Array>
          </mxGeometry>
        </mxCell>
        <mxCell id="zrA66kBHLIKpK4oijakD-6" value="" style="endArrow=none;html=1;rounded=0;entryX=0;entryY=0.5;entryDx=0;entryDy=0;exitX=0.5;exitY=0;exitDx=0;exitDy=0;" edge="1" parent="1" source="PZfGzbShFNdAoiEEgzWy-12" target="zrA66kBHLIKpK4oijakD-5">
          <mxGeometry width="50" height="50" relative="1" as="geometry">
            <mxPoint x="1241" y="310" as="sourcePoint" />
            <mxPoint x="1291" y="260" as="targetPoint" />
          </mxGeometry>
        </mxCell>
        <mxCell id="zrA66kBHLIKpK4oijakD-7" value="" style="endArrow=none;html=1;rounded=0;entryX=0;entryY=0.5;entryDx=0;entryDy=0;exitX=0.5;exitY=0;exitDx=0;exitDy=0;" edge="1" parent="1" source="PZfGzbShFNdAoiEEgzWy-10" target="zrA66kBHLIKpK4oijakD-5">
          <mxGeometry width="50" height="50" relative="1" as="geometry">
            <mxPoint x="1241" y="310" as="sourcePoint" />
            <mxPoint x="1291" y="260" as="targetPoint" />
          </mxGeometry>
        </mxCell>
        <mxCell id="zrA66kBHLIKpK4oijakD-8" value="" style="endArrow=none;html=1;rounded=0;entryX=0;entryY=0.5;entryDx=0;entryDy=0;exitX=0.5;exitY=0;exitDx=0;exitDy=0;" edge="1" parent="1" source="MHSS6djbWjyrjED063CA-9" target="zrA66kBHLIKpK4oijakD-5">
          <mxGeometry width="50" height="50" relative="1" as="geometry">
            <mxPoint x="1241" y="310" as="sourcePoint" />
            <mxPoint x="1291" y="260" as="targetPoint" />
          </mxGeometry>
        </mxCell>
        <mxCell id="zrA66kBHLIKpK4oijakD-9" value="" style="endArrow=none;html=1;rounded=0;entryX=0;entryY=0.5;entryDx=0;entryDy=0;exitX=0.5;exitY=0;exitDx=0;exitDy=0;" edge="1" parent="1" source="PZfGzbShFNdAoiEEgzWy-14" target="zrA66kBHLIKpK4oijakD-5">
          <mxGeometry width="50" height="50" relative="1" as="geometry">
            <mxPoint x="1241" y="310" as="sourcePoint" />
            <mxPoint x="1291" y="260" as="targetPoint" />
          </mxGeometry>
        </mxCell>
        <mxCell id="zrA66kBHLIKpK4oijakD-11" value="" style="endArrow=none;html=1;rounded=0;entryX=0.5;entryY=1;entryDx=0;entryDy=0;exitX=1;exitY=0.5;exitDx=0;exitDy=0;" edge="1" parent="1" source="zVHzj3ecezakpNuDU_De-4" target="MHSS6djbWjyrjED063CA-9">
          <mxGeometry width="50" height="50" relative="1" as="geometry">
            <mxPoint x="1241" y="450" as="sourcePoint" />
            <mxPoint x="1291" y="400" as="targetPoint" />
          </mxGeometry>
        </mxCell>
        <mxCell id="zrA66kBHLIKpK4oijakD-12" value="" style="endArrow=none;html=1;rounded=0;entryX=0.032;entryY=0.003;entryDx=0;entryDy=0;exitX=0.5;exitY=0;exitDx=0;exitDy=0;entryPerimeter=0;" edge="1" parent="1" source="MHSS6djbWjyrjED063CA-12" target="zVHzj3ecezakpNuDU_De-4">
          <mxGeometry width="50" height="50" relative="1" as="geometry">
            <mxPoint x="1241" y="450" as="sourcePoint" />
            <mxPoint x="1353" y="390" as="targetPoint" />
            <Array as="points">
              <mxPoint x="1254" y="385" />
            </Array>
          </mxGeometry>
        </mxCell>
        <mxCell id="zrA66kBHLIKpK4oijakD-13" value="" style="endArrow=none;html=1;rounded=0;entryX=0;entryY=0.5;entryDx=0;entryDy=0;exitX=0.5;exitY=0;exitDx=0;exitDy=0;" edge="1" parent="1" source="MHSS6djbWjyrjED063CA-10" target="zVHzj3ecezakpNuDU_De-4">
          <mxGeometry width="50" height="50" relative="1" as="geometry">
            <mxPoint x="1241" y="450" as="sourcePoint" />
            <mxPoint x="1353" y="390" as="targetPoint" />
          </mxGeometry>
        </mxCell>
        <mxCell id="zrA66kBHLIKpK4oijakD-15" value="" style="endArrow=none;html=1;rounded=0;exitX=0.5;exitY=0;exitDx=0;exitDy=0;entryX=0;entryY=0.5;entryDx=0;entryDy=0;" edge="1" parent="1" source="yV0FYIFKv9BxsQTMN04u-23" target="zrA66kBHLIKpK4oijakD-5">
          <mxGeometry width="50" height="50" relative="1" as="geometry">
            <mxPoint x="1220" y="410" as="sourcePoint" />
            <mxPoint x="1290" y="260" as="targetPoint" />
          </mxGeometry>
        </mxCell>
        <mxCell id="b3Ur7yH1-Dam76R3y_Zk-5" value="acessa" style="shape=rhombus;perimeter=rhombusPerimeter;whiteSpace=wrap;html=1;align=center;" vertex="1" parent="1">
          <mxGeometry x="860.0000000000001" y="780" width="120" height="60" as="geometry" />
        </mxCell>
        <mxCell id="zrA66kBHLIKpK4oijakD-16" value="" style="endArrow=none;html=1;rounded=0;entryX=0;entryY=0.5;entryDx=0;entryDy=0;exitX=0.5;exitY=0;exitDx=0;exitDy=0;" edge="1" parent="1" source="NFgqACAjN6bbBUPU2ulZ-4" target="zrA66kBHLIKpK4oijakD-5">
          <mxGeometry width="50" height="50" relative="1" as="geometry">
            <mxPoint x="1220" y="380" as="sourcePoint" />
            <mxPoint x="1270" y="330" as="targetPoint" />
          </mxGeometry>
        </mxCell>
        <mxCell id="b3Ur7yH1-Dam76R3y_Zk-6" value="entra" style="shape=rhombus;perimeter=rhombusPerimeter;whiteSpace=wrap;html=1;align=center;" vertex="1" parent="1">
          <mxGeometry x="860" y="476.88" width="120" height="60" as="geometry" />
        </mxCell>
        <mxCell id="b3Ur7yH1-Dam76R3y_Zk-11" value="" style="endArrow=none;html=1;rounded=0;exitX=1;exitY=0.5;exitDx=0;exitDy=0;entryX=0;entryY=0.5;entryDx=0;entryDy=0;" edge="1" parent="1" source="b3Ur7yH1-Dam76R3y_Zk-6" target="W9NuQ4Psg400-CG8Jt55-6">
          <mxGeometry relative="1" as="geometry">
            <mxPoint x="870" y="530" as="sourcePoint" />
            <mxPoint x="1030" y="530" as="targetPoint" />
            <Array as="points">
              <mxPoint x="1164" y="504" />
            </Array>
          </mxGeometry>
        </mxCell>
        <mxCell id="b3Ur7yH1-Dam76R3y_Zk-12" value="" style="endArrow=none;html=1;rounded=0;exitX=1;exitY=0.5;exitDx=0;exitDy=0;entryX=0.5;entryY=0;entryDx=0;entryDy=0;" edge="1" parent="1" source="b3Ur7yH1-Dam76R3y_Zk-5" target="W9NuQ4Psg400-CG8Jt55-2">
          <mxGeometry relative="1" as="geometry">
            <mxPoint x="1070" y="510" as="sourcePoint" />
            <mxPoint x="1240" y="510" as="targetPoint" />
            <Array as="points">
              <mxPoint x="1431" y="810" />
            </Array>
          </mxGeometry>
        </mxCell>
        <mxCell id="Ky1s-9VHa98eXEHkMGNm-3" value="" style="group" connectable="0" vertex="1" parent="1">
          <mxGeometry x="395" y="358" width="345" height="164.5" as="geometry" />
        </mxCell>
        <mxCell id="edTjm4dISCqz6r1TiSTo-39" value="Arma" style="whiteSpace=wrap;html=1;align=center;" vertex="1" parent="Ky1s-9VHa98eXEHkMGNm-3">
          <mxGeometry x="110" width="100" height="40" as="geometry" />
        </mxCell>
        <mxCell id="edTjm4dISCqz6r1TiSTo-42" value="Projétil" style="shape=ext;margin=3;double=1;whiteSpace=wrap;html=1;align=center;" vertex="1" parent="Ky1s-9VHa98eXEHkMGNm-3">
          <mxGeometry x="229" y="63" width="100" height="40" as="geometry" />
        </mxCell>
        <mxCell id="edTjm4dISCqz6r1TiSTo-43" value="dispara" style="shape=rhombus;perimeter=rhombusPerimeter;whiteSpace=wrap;html=1;align=center;" vertex="1" parent="Ky1s-9VHa98eXEHkMGNm-3">
          <mxGeometry x="229" width="100" height="50" as="geometry" />
        </mxCell>
        <mxCell id="edTjm4dISCqz6r1TiSTo-68" value="" style="triangle;whiteSpace=wrap;html=1;direction=north;" vertex="1" parent="Ky1s-9VHa98eXEHkMGNm-3">
          <mxGeometry x="150" y="142" width="20" height="20" as="geometry" />
        </mxCell>
        <mxCell id="edTjm4dISCqz6r1TiSTo-47" value="" style="endArrow=none;html=1;rounded=0;exitX=1.016;exitY=0.618;exitDx=0;exitDy=0;exitPerimeter=0;entryX=0;entryY=0.5;entryDx=0;entryDy=0;" edge="1" parent="Ky1s-9VHa98eXEHkMGNm-3" source="edTjm4dISCqz6r1TiSTo-39" target="edTjm4dISCqz6r1TiSTo-43">
          <mxGeometry relative="1" as="geometry">
            <mxPoint x="565" y="302" as="sourcePoint" />
            <mxPoint x="725" y="302" as="targetPoint" />
          </mxGeometry>
        </mxCell>
        <mxCell id="edTjm4dISCqz6r1TiSTo-48" value="1" style="resizable=0;html=1;whiteSpace=wrap;align=right;verticalAlign=bottom;" connectable="0" vertex="1" parent="edTjm4dISCqz6r1TiSTo-47">
          <mxGeometry x="1" relative="1" as="geometry" />
        </mxCell>
        <mxCell id="edTjm4dISCqz6r1TiSTo-49" value="" style="endArrow=none;html=1;rounded=0;exitX=0.5;exitY=1;exitDx=0;exitDy=0;entryX=0.5;entryY=0;entryDx=0;entryDy=0;" edge="1" parent="Ky1s-9VHa98eXEHkMGNm-3" source="edTjm4dISCqz6r1TiSTo-43" target="edTjm4dISCqz6r1TiSTo-42">
          <mxGeometry relative="1" as="geometry">
            <mxPoint x="525" y="282" as="sourcePoint" />
            <mxPoint x="685" y="282" as="targetPoint" />
          </mxGeometry>
        </mxCell>
        <mxCell id="edTjm4dISCqz6r1TiSTo-50" value="N" style="resizable=0;html=1;whiteSpace=wrap;align=right;verticalAlign=bottom;" connectable="0" vertex="1" parent="edTjm4dISCqz6r1TiSTo-49">
          <mxGeometry x="1" relative="1" as="geometry" />
        </mxCell>
        <mxCell id="Y3QKmGrY4lN9iiHL7ZVx-9" style="edgeStyle=none;curved=1;rounded=0;orthogonalLoop=1;jettySize=auto;html=1;exitX=0.5;exitY=1;exitDx=0;exitDy=0;fontSize=12;startSize=8;endSize=8;" edge="1" parent="Ky1s-9VHa98eXEHkMGNm-3">
          <mxGeometry relative="1" as="geometry">
            <mxPoint x="40" y="28" as="sourcePoint" />
            <mxPoint x="40" y="28" as="targetPoint" />
          </mxGeometry>
        </mxCell>
        <mxCell id="Y3QKmGrY4lN9iiHL7ZVx-12" value="" style="shape=link;html=1;rounded=0;fontSize=12;startSize=8;endSize=8;curved=1;exitX=0.5;exitY=1;exitDx=0;exitDy=0;entryX=1;entryY=0.5;entryDx=0;entryDy=0;" edge="1" parent="Ky1s-9VHa98eXEHkMGNm-3" source="edTjm4dISCqz6r1TiSTo-39" target="edTjm4dISCqz6r1TiSTo-68">
          <mxGeometry relative="1" as="geometry">
            <mxPoint x="95" y="292" as="sourcePoint" />
            <mxPoint x="205" y="292" as="targetPoint" />
          </mxGeometry>
        </mxCell>
        <mxCell id="Y3QKmGrY4lN9iiHL7ZVx-13" value="M" style="resizable=0;html=1;whiteSpace=wrap;align=left;verticalAlign=bottom;" connectable="0" vertex="1" parent="Y3QKmGrY4lN9iiHL7ZVx-12">
          <mxGeometry x="-1" relative="1" as="geometry" />
        </mxCell>
        <mxCell id="Y3QKmGrY4lN9iiHL7ZVx-42" value="quantidade" style="ellipse;whiteSpace=wrap;html=1;align=center;" vertex="1" parent="Ky1s-9VHa98eXEHkMGNm-3">
          <mxGeometry x="255" y="116" width="70" height="28" as="geometry" />
        </mxCell>
        <mxCell id="Y3QKmGrY4lN9iiHL7ZVx-43" value="" style="endArrow=none;html=1;rounded=0;fontSize=12;startSize=8;endSize=8;curved=1;entryX=0.25;entryY=1;entryDx=0;entryDy=0;exitX=1;exitY=0;exitDx=0;exitDy=0;" edge="1" parent="Ky1s-9VHa98eXEHkMGNm-3" source="Y3QKmGrY4lN9iiHL7ZVx-42">
          <mxGeometry relative="1" as="geometry">
            <mxPoint x="315" y="125" as="sourcePoint" />
            <mxPoint x="315" y="103" as="targetPoint" />
          </mxGeometry>
        </mxCell>
        <mxCell id="8EMlETkR0a2YjbYyCxlA-3" value="" style="endArrow=none;html=1;rounded=0;entryX=0.371;entryY=1;entryDx=0;entryDy=0;entryPerimeter=0;" edge="1" parent="Ky1s-9VHa98eXEHkMGNm-3" target="edTjm4dISCqz6r1TiSTo-39">
          <mxGeometry width="50" height="50" relative="1" as="geometry">
            <mxPoint x="147" y="52" as="sourcePoint" />
            <mxPoint y="99" as="targetPoint" />
          </mxGeometry>
        </mxCell>
        <mxCell id="8EMlETkR0a2YjbYyCxlA-4" value="" style="ellipse;whiteSpace=wrap;html=1;" vertex="1" parent="Ky1s-9VHa98eXEHkMGNm-3">
          <mxGeometry x="140" y="50" width="10" height="10" as="geometry" />
        </mxCell>
        <mxCell id="8EMlETkR0a2YjbYyCxlA-10" value="" style="endArrow=none;html=1;rounded=0;entryX=0.231;entryY=1;entryDx=0;entryDy=0;exitX=1;exitY=0;exitDx=0;exitDy=0;entryPerimeter=0;" edge="1" parent="Ky1s-9VHa98eXEHkMGNm-3" source="8EMlETkR0a2YjbYyCxlA-11" target="edTjm4dISCqz6r1TiSTo-39">
          <mxGeometry width="50" height="50" relative="1" as="geometry">
            <mxPoint x="117" y="52" as="sourcePoint" />
            <mxPoint x="117" y="40" as="targetPoint" />
          </mxGeometry>
        </mxCell>
        <mxCell id="8EMlETkR0a2YjbYyCxlA-11" value="" style="ellipse;whiteSpace=wrap;html=1;" vertex="1" parent="Ky1s-9VHa98eXEHkMGNm-3">
          <mxGeometry x="125" y="50" width="10" height="10" as="geometry" />
        </mxCell>
        <mxCell id="8EMlETkR0a2YjbYyCxlA-13" value="" style="ellipse;whiteSpace=wrap;html=1;" vertex="1" parent="Ky1s-9VHa98eXEHkMGNm-3">
          <mxGeometry x="110" y="50" width="10" height="10" as="geometry" />
        </mxCell>
        <mxCell id="8EMlETkR0a2YjbYyCxlA-14" value="" style="endArrow=none;html=1;rounded=0;entryX=0.051;entryY=0.993;entryDx=0;entryDy=0;entryPerimeter=0;" edge="1" parent="Ky1s-9VHa98eXEHkMGNm-3" source="8EMlETkR0a2YjbYyCxlA-13" target="edTjm4dISCqz6r1TiSTo-39">
          <mxGeometry width="50" height="50" relative="1" as="geometry">
            <mxPoint x="95" y="40" as="sourcePoint" />
            <mxPoint x="115" y="42" as="targetPoint" />
          </mxGeometry>
        </mxCell>
        <mxCell id="8EMlETkR0a2YjbYyCxlA-18" value="id" style="text;html=1;align=center;verticalAlign=middle;whiteSpace=wrap;rounded=0;fontSize=5;" vertex="1" parent="Ky1s-9VHa98eXEHkMGNm-3">
          <mxGeometry x="107.5" y="60" width="15" height="10" as="geometry" />
        </mxCell>
        <mxCell id="8EMlETkR0a2YjbYyCxlA-19" value="dano" style="text;html=1;align=center;verticalAlign=middle;whiteSpace=wrap;rounded=0;fontSize=5;" vertex="1" parent="Ky1s-9VHa98eXEHkMGNm-3">
          <mxGeometry x="122.5" y="60" width="15" height="10" as="geometry" />
        </mxCell>
        <mxCell id="8EMlETkR0a2YjbYyCxlA-20" value="munição" style="text;html=1;align=center;verticalAlign=middle;whiteSpace=wrap;rounded=0;fontSize=5;" vertex="1" parent="Ky1s-9VHa98eXEHkMGNm-3">
          <mxGeometry x="140" y="60" width="15" height="10" as="geometry" />
        </mxCell>
        <mxCell id="B0qXdOXs7A3VCkvh5LKk-2" value="" style="endArrow=none;html=1;rounded=0;entryX=0;entryY=0.5;entryDx=0;entryDy=0;exitX=1;exitY=0.5;exitDx=0;exitDy=0;" edge="1" parent="1" source="zVHzj3ecezakpNuDU_De-11" target="W9NuQ4Psg400-CG8Jt55-5">
          <mxGeometry width="50" height="50" relative="1" as="geometry">
            <mxPoint x="102.5" as="sourcePoint" />
            <mxPoint x="185.37" y="-45.129999999999995" as="targetPoint" />
            <Array as="points">
              <mxPoint x="100" y="-65" />
            </Array>
          </mxGeometry>
        </mxCell>
        <mxCell id="B0qXdOXs7A3VCkvh5LKk-3" value="Usa" style="shape=rhombus;perimeter=rhombusPerimeter;whiteSpace=wrap;html=1;align=center;" vertex="1" parent="1">
          <mxGeometry x="286.25" y="31" width="104.5" height="50" as="geometry" />
        </mxCell>
        <mxCell id="B0qXdOXs7A3VCkvh5LKk-4" value="" style="endArrow=none;html=1;rounded=0;entryX=0;entryY=0.75;entryDx=0;entryDy=0;exitX=0;exitY=0.5;exitDx=0;exitDy=0;" edge="1" parent="1" source="MHSS6djbWjyrjED063CA-5" target="zVHzj3ecezakpNuDU_De-11">
          <mxGeometry width="50" height="50" relative="1" as="geometry">
            <mxPoint x="366" y="-89.88" as="sourcePoint" />
            <mxPoint x="102.5" y="30" as="targetPoint" />
            <Array as="points">
              <mxPoint x="110" y="74" />
            </Array>
          </mxGeometry>
        </mxCell>
        <mxCell id="B0qXdOXs7A3VCkvh5LKk-5" value="" style="endArrow=none;html=1;rounded=0;entryX=1;entryY=0.5;entryDx=0;entryDy=0;exitX=0.5;exitY=0;exitDx=0;exitDy=0;" edge="1" parent="1" source="B0qXdOXs7A3VCkvh5LKk-3" target="W9NuQ4Psg400-CG8Jt55-5">
          <mxGeometry width="50" height="50" relative="1" as="geometry">
            <mxPoint x="370" y="50" as="sourcePoint" />
            <mxPoint x="420" as="targetPoint" />
            <Array as="points">
              <mxPoint x="339" y="-65" />
            </Array>
          </mxGeometry>
        </mxCell>
        <mxCell id="B0qXdOXs7A3VCkvh5LKk-6" value="" style="endArrow=none;html=1;rounded=0;entryX=1;entryY=0.5;entryDx=0;entryDy=0;exitX=0;exitY=0;exitDx=0;exitDy=0;" edge="1" parent="1" source="edTjm4dISCqz6r1TiSTo-19" target="B0qXdOXs7A3VCkvh5LKk-3">
          <mxGeometry width="50" height="50" relative="1" as="geometry">
            <mxPoint x="370" y="50" as="sourcePoint" />
            <mxPoint x="420" as="targetPoint" />
            <Array as="points">
              <mxPoint x="500" y="60" />
            </Array>
          </mxGeometry>
        </mxCell>
        <mxCell id="B0qXdOXs7A3VCkvh5LKk-7" value="" style="endArrow=none;html=1;rounded=0;entryX=-0.002;entryY=0.352;entryDx=0;entryDy=0;exitX=1;exitY=0.5;exitDx=0;exitDy=0;entryPerimeter=0;" edge="1" parent="1" source="MHSS6djbWjyrjED063CA-6" target="zVHzj3ecezakpNuDU_De-11">
          <mxGeometry width="50" height="50" relative="1" as="geometry">
            <mxPoint x="230" y="140" as="sourcePoint" />
            <mxPoint x="102.5" y="30" as="targetPoint" />
            <Array as="points">
              <mxPoint x="100" y="74" />
            </Array>
          </mxGeometry>
        </mxCell>
        <mxCell id="z2NVu-qd8Vl8eLiHw5Hi-1" value="transita" style="shape=rhombus;perimeter=rhombusPerimeter;whiteSpace=wrap;html=1;align=center;" vertex="1" parent="1">
          <mxGeometry x="1376" y="480" width="120" height="60" as="geometry" />
        </mxCell>
        <mxCell id="z2NVu-qd8Vl8eLiHw5Hi-2" value="" style="endArrow=none;html=1;rounded=0;exitX=0.5;exitY=0;exitDx=0;exitDy=0;entryX=0;entryY=0.5;entryDx=0;entryDy=0;" edge="1" parent="1" source="W9NuQ4Psg400-CG8Jt55-2" target="z2NVu-qd8Vl8eLiHw5Hi-1">
          <mxGeometry relative="1" as="geometry">
            <mxPoint x="1370" y="640" as="sourcePoint" />
            <mxPoint x="1530" y="640" as="targetPoint" />
          </mxGeometry>
        </mxCell>
        <mxCell id="z2NVu-qd8Vl8eLiHw5Hi-3" value="" style="endArrow=none;html=1;rounded=0;exitX=0.5;exitY=0;exitDx=0;exitDy=0;entryX=1;entryY=0.5;entryDx=0;entryDy=0;" edge="1" parent="1" source="W9NuQ4Psg400-CG8Jt55-2" target="z2NVu-qd8Vl8eLiHw5Hi-1">
          <mxGeometry relative="1" as="geometry">
            <mxPoint x="1500" y="670" as="sourcePoint" />
            <mxPoint x="1530" y="700" as="targetPoint" />
          </mxGeometry>
        </mxCell>
        <mxCell id="edTjm4dISCqz6r1TiSTo-51" value="Rifle" style="whiteSpace=wrap;html=1;align=center;" vertex="1" parent="1">
          <mxGeometry x="460" y="574.38" width="80" height="40" as="geometry" />
        </mxCell>
        <mxCell id="edTjm4dISCqz6r1TiSTo-52" value="Pistola" style="whiteSpace=wrap;html=1;align=center;" vertex="1" parent="1">
          <mxGeometry x="359.51" y="574.38" width="85" height="40" as="geometry" />
        </mxCell>
        <mxCell id="edTjm4dISCqz6r1TiSTo-53" value="Shotgun" style="whiteSpace=wrap;html=1;align=center;" vertex="1" parent="1">
          <mxGeometry x="640" y="574.38" width="80" height="40" as="geometry" />
        </mxCell>
        <mxCell id="edTjm4dISCqz6r1TiSTo-54" value="Revólver" style="whiteSpace=wrap;html=1;align=center;" vertex="1" parent="1">
          <mxGeometry x="550" y="574.38" width="80" height="40" as="geometry" />
        </mxCell>
        <mxCell id="edTjm4dISCqz6r1TiSTo-71" value="" style="endArrow=none;html=1;rounded=0;entryX=-0.023;entryY=0.35;entryDx=0;entryDy=0;exitX=0.5;exitY=0;exitDx=0;exitDy=0;entryPerimeter=0;" edge="1" parent="1" source="edTjm4dISCqz6r1TiSTo-51" target="edTjm4dISCqz6r1TiSTo-68">
          <mxGeometry width="50" height="50" relative="1" as="geometry">
            <mxPoint x="582.5" y="501" as="sourcePoint" />
            <mxPoint x="555" y="471" as="targetPoint" />
            <Array as="points">
              <mxPoint x="500" y="540" />
              <mxPoint x="552" y="540" />
            </Array>
          </mxGeometry>
        </mxCell>
        <mxCell id="edTjm4dISCqz6r1TiSTo-75" value="" style="endArrow=none;html=1;rounded=0;exitX=-0.009;exitY=0.919;exitDx=0;exitDy=0;entryX=0.5;entryY=0;entryDx=0;entryDy=0;exitPerimeter=0;" edge="1" parent="1" source="edTjm4dISCqz6r1TiSTo-68" target="edTjm4dISCqz6r1TiSTo-53">
          <mxGeometry relative="1" as="geometry">
            <mxPoint x="555" y="471" as="sourcePoint" />
            <mxPoint x="1017.5" y="468" as="targetPoint" />
            <Array as="points">
              <mxPoint x="680" y="520" />
            </Array>
          </mxGeometry>
        </mxCell>
        <mxCell id="edTjm4dISCqz6r1TiSTo-72" value="" style="endArrow=none;html=1;rounded=0;exitX=0.5;exitY=0;exitDx=0;exitDy=0;entryX=-0.005;entryY=0.628;entryDx=0;entryDy=0;entryPerimeter=0;" edge="1" parent="1" source="edTjm4dISCqz6r1TiSTo-54" target="edTjm4dISCqz6r1TiSTo-68">
          <mxGeometry width="50" height="50" relative="1" as="geometry">
            <mxPoint x="635" y="501" as="sourcePoint" />
            <mxPoint x="557.5" y="471" as="targetPoint" />
            <Array as="points">
              <mxPoint x="590" y="540" />
              <mxPoint x="558" y="540" />
            </Array>
          </mxGeometry>
        </mxCell>
        <mxCell id="z2NVu-qd8Vl8eLiHw5Hi-13" value="" style="endArrow=none;html=1;rounded=0;exitX=0.98;exitY=0.501;exitDx=0;exitDy=0;exitPerimeter=0;entryX=0;entryY=0.5;entryDx=0;entryDy=0;" edge="1" parent="1" source="7i5WLGqGZnLkVZAE3K9o-4" target="W9NuQ4Psg400-CG8Jt55-1">
          <mxGeometry relative="1" as="geometry">
            <mxPoint x="1570" y="640" as="sourcePoint" />
            <mxPoint x="1650" y="640" as="targetPoint" />
          </mxGeometry>
        </mxCell>
        <mxCell id="z2NVu-qd8Vl8eLiHw5Hi-14" value="1" style="resizable=0;html=1;whiteSpace=wrap;align=right;verticalAlign=bottom;" connectable="0" vertex="1" parent="z2NVu-qd8Vl8eLiHw5Hi-13">
          <mxGeometry x="1" relative="1" as="geometry" />
        </mxCell>
        <mxCell id="z2NVu-qd8Vl8eLiHw5Hi-15" value="" style="endArrow=none;html=1;rounded=0;exitX=1;exitY=0.5;exitDx=0;exitDy=0;entryX=0;entryY=0.5;entryDx=0;entryDy=0;" edge="1" parent="1" source="W9NuQ4Psg400-CG8Jt55-2" target="7i5WLGqGZnLkVZAE3K9o-4">
          <mxGeometry relative="1" as="geometry">
            <mxPoint x="1490" y="630" as="sourcePoint" />
            <mxPoint x="1550" y="630" as="targetPoint" />
          </mxGeometry>
        </mxCell>
        <mxCell id="z2NVu-qd8Vl8eLiHw5Hi-16" value="N" style="resizable=0;html=1;whiteSpace=wrap;align=right;verticalAlign=bottom;" connectable="0" vertex="1" parent="z2NVu-qd8Vl8eLiHw5Hi-15">
          <mxGeometry x="1" relative="1" as="geometry" />
        </mxCell>
        <mxCell id="z2NVu-qd8Vl8eLiHw5Hi-31" value="" style="endArrow=none;html=1;rounded=0;exitX=1;exitY=0.5;exitDx=0;exitDy=0;entryX=0;entryY=0.5;entryDx=0;entryDy=0;" edge="1" parent="1" source="7i5WLGqGZnLkVZAE3K9o-7" target="W9NuQ4Psg400-CG8Jt55-2">
          <mxGeometry relative="1" as="geometry">
            <mxPoint x="1231" y="630" as="sourcePoint" />
            <mxPoint x="1380" y="590" as="targetPoint" />
          </mxGeometry>
        </mxCell>
        <mxCell id="z2NVu-qd8Vl8eLiHw5Hi-33" value="N" style="resizable=0;html=1;whiteSpace=wrap;align=right;verticalAlign=bottom;" connectable="0" vertex="1" parent="z2NVu-qd8Vl8eLiHw5Hi-31">
          <mxGeometry x="1" relative="1" as="geometry" />
        </mxCell>
        <mxCell id="z2NVu-qd8Vl8eLiHw5Hi-34" value="" style="endArrow=none;html=1;rounded=0;exitX=0.5;exitY=0;exitDx=0;exitDy=0;entryX=0;entryY=0.5;entryDx=0;entryDy=0;" edge="1" parent="1" source="W9NuQ4Psg400-CG8Jt55-6" target="7i5WLGqGZnLkVZAE3K9o-7">
          <mxGeometry relative="1" as="geometry">
            <mxPoint x="1220" y="670" as="sourcePoint" />
            <mxPoint x="1380" y="670" as="targetPoint" />
          </mxGeometry>
        </mxCell>
        <mxCell id="z2NVu-qd8Vl8eLiHw5Hi-35" value="N" style="resizable=0;html=1;whiteSpace=wrap;align=left;verticalAlign=bottom;" connectable="0" vertex="1" parent="z2NVu-qd8Vl8eLiHw5Hi-34">
          <mxGeometry x="-1" relative="1" as="geometry" />
        </mxCell>
        <mxCell id="z2NVu-qd8Vl8eLiHw5Hi-37" value="&lt;font style=&quot;font-size: 9px;&quot;&gt;região de chegada&lt;/font&gt;" style="text;strokeColor=none;fillColor=none;spacingLeft=4;spacingRight=4;overflow=hidden;rotatable=0;points=[[0,0.5],[1,0.5]];portConstraint=eastwest;fontSize=12;whiteSpace=wrap;html=1;" vertex="1" parent="1">
          <mxGeometry x="1326" y="522.5" width="81" height="30" as="geometry" />
        </mxCell>
        <mxCell id="z2NVu-qd8Vl8eLiHw5Hi-38" value="&lt;font style=&quot;font-size: 9px;&quot;&gt;região de partida&lt;/font&gt;" style="text;strokeColor=none;fillColor=none;spacingLeft=4;spacingRight=4;overflow=hidden;rotatable=0;points=[[0,0.5],[1,0.5]];portConstraint=eastwest;fontSize=12;whiteSpace=wrap;html=1;" vertex="1" parent="1">
          <mxGeometry x="1470" y="522.5" width="71" height="30" as="geometry" />
        </mxCell>
        <mxCell id="Y3QKmGrY4lN9iiHL7ZVx-35" value="capacidade" style="ellipse;whiteSpace=wrap;html=1;align=center;" vertex="1" parent="1">
          <mxGeometry x="870" y="213" width="70" height="28" as="geometry" />
        </mxCell>
        <mxCell id="Y3QKmGrY4lN9iiHL7ZVx-36" value="" style="endArrow=none;html=1;rounded=0;fontSize=12;startSize=8;endSize=8;curved=1;entryX=0.25;entryY=1;entryDx=0;entryDy=0;exitX=1;exitY=0;exitDx=0;exitDy=0;" edge="1" parent="1" source="Y3QKmGrY4lN9iiHL7ZVx-35">
          <mxGeometry relative="1" as="geometry">
            <mxPoint x="930" y="222" as="sourcePoint" />
            <mxPoint x="930" y="200" as="targetPoint" />
          </mxGeometry>
        </mxCell>
        <mxCell id="94cfyis6TtCI4MxM053h-14" style="edgeStyle=none;curved=1;rounded=0;orthogonalLoop=1;jettySize=auto;html=1;exitX=0.5;exitY=0;exitDx=0;exitDy=0;fontSize=12;startSize=8;endSize=8;" edge="1" parent="1">
          <mxGeometry relative="1" as="geometry">
            <mxPoint x="1346.5" y="380" as="sourcePoint" />
            <mxPoint x="1346.5" y="380" as="targetPoint" />
          </mxGeometry>
        </mxCell>
        <mxCell id="z2NVu-qd8Vl8eLiHw5Hi-39" value="" style="endArrow=none;html=1;rounded=0;exitX=1;exitY=0.5;exitDx=0;exitDy=0;entryX=0.5;entryY=1;entryDx=0;entryDy=0;" edge="1" parent="1" source="edTjm4dISCqz6r1TiSTo-55" target="b3Ur7yH1-Dam76R3y_Zk-6">
          <mxGeometry relative="1" as="geometry">
            <mxPoint x="490" y="650" as="sourcePoint" />
            <mxPoint x="650" y="650" as="targetPoint" />
            <Array as="points">
              <mxPoint x="920" y="650" />
            </Array>
          </mxGeometry>
        </mxCell>
        <mxCell id="z2NVu-qd8Vl8eLiHw5Hi-41" value="" style="endArrow=none;html=1;rounded=0;exitX=0.5;exitY=1;exitDx=0;exitDy=0;entryX=0;entryY=0.5;entryDx=0;entryDy=0;" edge="1" parent="1" source="edTjm4dISCqz6r1TiSTo-55" target="b3Ur7yH1-Dam76R3y_Zk-5">
          <mxGeometry relative="1" as="geometry">
            <mxPoint x="460" y="760" as="sourcePoint" />
            <mxPoint x="620" y="760" as="targetPoint" />
            <Array as="points">
              <mxPoint x="336" y="810" />
            </Array>
          </mxGeometry>
        </mxCell>
        <mxCell id="W9NuQ4Psg400-CG8Jt55-2" value="Região" style="whiteSpace=wrap;html=1;align=center;" vertex="1" parent="1">
          <mxGeometry x="1391" y="576.88" width="80" height="45" as="geometry" />
        </mxCell>
        <mxCell id="z2NVu-qd8Vl8eLiHw5Hi-4" value="id_regiao" style="ellipse;whiteSpace=wrap;html=1;align=center;" vertex="1" parent="1">
          <mxGeometry x="1490" y="650" width="75" height="30" as="geometry" />
        </mxCell>
        <mxCell id="z2NVu-qd8Vl8eLiHw5Hi-5" value="descricao" style="ellipse;whiteSpace=wrap;html=1;align=center;" vertex="1" parent="1">
          <mxGeometry x="1490" y="680" width="75" height="30" as="geometry" />
        </mxCell>
        <mxCell id="z2NVu-qd8Vl8eLiHw5Hi-6" value="regioes_vizinhas" style="ellipse;whiteSpace=wrap;html=1;align=center;" vertex="1" parent="1">
          <mxGeometry x="1482.5" y="710" width="90" height="30" as="geometry" />
        </mxCell>
        <mxCell id="z2NVu-qd8Vl8eLiHw5Hi-8" value="" style="endArrow=none;html=1;rounded=0;exitX=1;exitY=1;exitDx=0;exitDy=0;entryX=0.264;entryY=0.012;entryDx=0;entryDy=0;entryPerimeter=0;" edge="1" parent="1" source="W9NuQ4Psg400-CG8Jt55-2" target="z2NVu-qd8Vl8eLiHw5Hi-4">
          <mxGeometry relative="1" as="geometry">
            <mxPoint x="1580" y="650" as="sourcePoint" />
            <mxPoint x="1740" y="650" as="targetPoint" />
          </mxGeometry>
        </mxCell>
        <mxCell id="z2NVu-qd8Vl8eLiHw5Hi-23" value="id_estab" style="ellipse;whiteSpace=wrap;html=1;align=center;" vertex="1" parent="1">
          <mxGeometry x="966.63" y="584.38" width="75" height="30" as="geometry" />
        </mxCell>
        <mxCell id="z2NVu-qd8Vl8eLiHw5Hi-24" value="regiao" style="ellipse;whiteSpace=wrap;html=1;align=center;" vertex="1" parent="1">
          <mxGeometry x="966.63" y="614.38" width="70.63" height="28.25" as="geometry" />
        </mxCell>
        <mxCell id="z2NVu-qd8Vl8eLiHw5Hi-25" value="dono" style="ellipse;whiteSpace=wrap;html=1;align=center;" vertex="1" parent="1">
          <mxGeometry x="966.63" y="642.63" width="70.63" height="28.25" as="geometry" />
        </mxCell>
        <mxCell id="NFgqACAjN6bbBUPU2ulZ-8" value="Bar" style="whiteSpace=wrap;html=1;" vertex="1" parent="1">
          <mxGeometry x="1045.5599999999995" y="690" width="71.63" height="38.75" as="geometry" />
        </mxCell>
        <mxCell id="NFgqACAjN6bbBUPU2ulZ-10" value="&lt;font style=&quot;font-size: 11px;&quot;&gt;Fazenda&lt;/font&gt;" style="whiteSpace=wrap;html=1;" vertex="1" parent="1">
          <mxGeometry x="1210.94" y="690" width="72.87" height="38.75" as="geometry" />
        </mxCell>
        <mxCell id="W9NuQ4Psg400-CG8Jt55-6" value="Estabelecimento" style="whiteSpace=wrap;html=1;align=center;direction=south;" vertex="1" parent="1">
          <mxGeometry x="1117.19" y="578.75" width="93.75" height="41.25" as="geometry" />
        </mxCell>
        <mxCell id="bdcIUMsAj0LZyXpdn6So-14" value="Casa" style="whiteSpace=wrap;html=1;" vertex="1" parent="1">
          <mxGeometry x="1125.5" y="690" width="77.13" height="38.75" as="geometry" />
        </mxCell>
        <mxCell id="z2NVu-qd8Vl8eLiHw5Hi-26" value="" style="endArrow=none;html=1;rounded=0;exitX=1;exitY=0.5;exitDx=0;exitDy=0;entryX=1;entryY=1;entryDx=0;entryDy=0;" edge="1" parent="1" source="z2NVu-qd8Vl8eLiHw5Hi-23" target="W9NuQ4Psg400-CG8Jt55-6">
          <mxGeometry relative="1" as="geometry">
            <mxPoint x="1070" y="770" as="sourcePoint" />
            <mxPoint x="1230" y="770" as="targetPoint" />
          </mxGeometry>
        </mxCell>
        <mxCell id="bdcIUMsAj0LZyXpdn6So-8" value="" style="triangle;whiteSpace=wrap;html=1;direction=north;" vertex="1" parent="1">
          <mxGeometry x="1150.3100000000002" y="642.63" width="27.5" height="27.5" as="geometry" />
        </mxCell>
        <mxCell id="bdcIUMsAj0LZyXpdn6So-11" value="" style="endArrow=none;html=1;rounded=0;exitX=0.5;exitY=0;exitDx=0;exitDy=0;entryX=0.011;entryY=-0.036;entryDx=0;entryDy=0;entryPerimeter=0;" edge="1" parent="1" source="NFgqACAjN6bbBUPU2ulZ-8" target="bdcIUMsAj0LZyXpdn6So-8">
          <mxGeometry width="50" height="50" relative="1" as="geometry">
            <mxPoint x="520.13" y="883.75" as="sourcePoint" />
            <mxPoint x="1340" y="630" as="targetPoint" />
            <Array as="points">
              <mxPoint x="1081" y="670" />
            </Array>
          </mxGeometry>
        </mxCell>
        <mxCell id="bdcIUMsAj0LZyXpdn6So-13" value="" style="endArrow=none;html=1;rounded=0;exitX=0.5;exitY=0;exitDx=0;exitDy=0;entryX=0.002;entryY=0.992;entryDx=0;entryDy=0;entryPerimeter=0;" edge="1" parent="1" source="NFgqACAjN6bbBUPU2ulZ-10" target="bdcIUMsAj0LZyXpdn6So-8">
          <mxGeometry width="50" height="50" relative="1" as="geometry">
            <mxPoint x="418.76" y="981.25" as="sourcePoint" />
            <mxPoint x="1212.9829411764704" y="747.5" as="targetPoint" />
            <Array as="points">
              <mxPoint x="1247" y="670" />
            </Array>
          </mxGeometry>
        </mxCell>
        <mxCell id="bdcIUMsAj0LZyXpdn6So-12" value="" style="endArrow=none;html=1;rounded=0;entryX=0;entryY=0.5;entryDx=0;entryDy=0;exitX=0.5;exitY=0;exitDx=0;exitDy=0;" edge="1" parent="1" source="bdcIUMsAj0LZyXpdn6So-14" target="bdcIUMsAj0LZyXpdn6So-8">
          <mxGeometry width="50" height="50" relative="1" as="geometry">
            <mxPoint x="365.76" y="981.25" as="sourcePoint" />
            <mxPoint x="368.76" y="941.25" as="targetPoint" />
          </mxGeometry>
        </mxCell>
        <mxCell id="z2NVu-qd8Vl8eLiHw5Hi-27" value="" style="shape=link;html=1;rounded=0;exitX=1;exitY=0.5;exitDx=0;exitDy=0;entryX=1;entryY=0.5;entryDx=0;entryDy=0;" edge="1" parent="1" source="W9NuQ4Psg400-CG8Jt55-6" target="bdcIUMsAj0LZyXpdn6So-8">
          <mxGeometry relative="1" as="geometry">
            <mxPoint x="1080" y="640" as="sourcePoint" />
            <mxPoint x="1190" y="670" as="targetPoint" />
          </mxGeometry>
        </mxCell>
        <mxCell id="z2NVu-qd8Vl8eLiHw5Hi-45" value="" style="triangle;whiteSpace=wrap;html=1;direction=north;" vertex="1" parent="1">
          <mxGeometry x="262.5000000000002" y="410" width="27.5" height="27.5" as="geometry" />
        </mxCell>
        <mxCell id="B9RGpqmMGsNtSQ1XmZ1p-1" value="" style="endArrow=none;html=1;rounded=0;entryX=0.092;entryY=0.004;entryDx=0;entryDy=0;entryPerimeter=0;" edge="1" parent="1" source="B9RGpqmMGsNtSQ1XmZ1p-2">
          <mxGeometry width="50" height="50" relative="1" as="geometry">
            <mxPoint x="-106.25999999999999" y="-121.12" as="sourcePoint" />
            <mxPoint x="-106.25" y="-92.12" as="targetPoint" />
          </mxGeometry>
        </mxCell>
        <mxCell id="B9RGpqmMGsNtSQ1XmZ1p-2" value="" style="ellipse;whiteSpace=wrap;html=1;" vertex="1" parent="1">
          <mxGeometry x="-88.75" y="-117.12" width="10" height="10" as="geometry" />
        </mxCell>
        <mxCell id="B9RGpqmMGsNtSQ1XmZ1p-3" value="&lt;font style=&quot;font-size: 7px;&quot;&gt;Espécie&lt;/font&gt;" style="text;html=1;align=center;verticalAlign=middle;resizable=0;points=[];autosize=1;strokeColor=none;fillColor=none;rotation=0;" vertex="1" parent="1">
          <mxGeometry x="-93.75" y="-137.12" width="50" height="30" as="geometry" />
        </mxCell>
        <mxCell id="B9RGpqmMGsNtSQ1XmZ1p-4" value="" style="endArrow=none;html=1;rounded=0;entryX=0.092;entryY=0.004;entryDx=0;entryDy=0;entryPerimeter=0;" edge="1" parent="1" source="B9RGpqmMGsNtSQ1XmZ1p-5">
          <mxGeometry width="50" height="50" relative="1" as="geometry">
            <mxPoint x="-117.75999999999999" y="-121.12" as="sourcePoint" />
            <mxPoint x="-117.75" y="-92.12" as="targetPoint" />
          </mxGeometry>
        </mxCell>
        <mxCell id="B9RGpqmMGsNtSQ1XmZ1p-5" value="" style="ellipse;whiteSpace=wrap;html=1;" vertex="1" parent="1">
          <mxGeometry x="-122.75" y="-126.12" width="10" height="10" as="geometry" />
        </mxCell>
        <mxCell id="B9RGpqmMGsNtSQ1XmZ1p-6" value="&lt;span style=&quot;font-size: 6px;&quot;&gt;&lt;b&gt;&lt;u&gt;ID&lt;/u&gt;&lt;/b&gt;&lt;/span&gt;" style="text;html=1;align=center;verticalAlign=middle;resizable=0;points=[];autosize=1;strokeColor=none;fillColor=none;rotation=0;" vertex="1" parent="1">
          <mxGeometry x="-132.75" y="-151" width="30" height="30" as="geometry" />
        </mxCell>
        <mxCell id="B9RGpqmMGsNtSQ1XmZ1p-7" value="" style="endArrow=none;html=1;rounded=0;entryX=0.092;entryY=0.004;entryDx=0;entryDy=0;entryPerimeter=0;" edge="1" parent="1" source="B9RGpqmMGsNtSQ1XmZ1p-8">
          <mxGeometry width="50" height="50" relative="1" as="geometry">
            <mxPoint x="-147.76" y="-121.12" as="sourcePoint" />
            <mxPoint x="-147.75" y="-92.12" as="targetPoint" />
          </mxGeometry>
        </mxCell>
        <mxCell id="B9RGpqmMGsNtSQ1XmZ1p-8" value="" style="ellipse;whiteSpace=wrap;html=1;" vertex="1" parent="1">
          <mxGeometry x="-152.75" y="-126.12" width="10" height="10" as="geometry" />
        </mxCell>
        <mxCell id="B9RGpqmMGsNtSQ1XmZ1p-9" value="&lt;span style=&quot;font-size: 6px;&quot;&gt;&lt;b&gt;&lt;u&gt;Condição&lt;/u&gt;&lt;/b&gt;&lt;/span&gt;" style="text;html=1;align=center;verticalAlign=middle;resizable=0;points=[];autosize=1;strokeColor=none;fillColor=none;rotation=0;" vertex="1" parent="1">
          <mxGeometry x="-168.75" y="-151" width="50" height="30" as="geometry" />
        </mxCell>
        <mxCell id="zVHzj3ecezakpNuDU_De-1" value="" style="endArrow=none;html=1;rounded=0;exitX=0.25;exitY=1;exitDx=0;exitDy=0;entryX=0.5;entryY=1;entryDx=0;entryDy=0;" edge="1" parent="1" source="edTjm4dISCqz6r1TiSTo-55" target="zVHzj3ecezakpNuDU_De-2">
          <mxGeometry relative="1" as="geometry">
            <mxPoint x="250" y="1020" as="sourcePoint" />
            <mxPoint x="770" y="560" as="targetPoint" />
            <Array as="points">
              <mxPoint x="311" y="880" />
              <mxPoint x="680" y="880" />
              <mxPoint x="1070" y="880" />
              <mxPoint x="1820" y="880" />
              <mxPoint x="1820" y="180" />
            </Array>
          </mxGeometry>
        </mxCell>
        <mxCell id="B9RGpqmMGsNtSQ1XmZ1p-10" value="" style="endArrow=none;html=1;rounded=0;entryX=0.092;entryY=0.004;entryDx=0;entryDy=0;entryPerimeter=0;exitX=0;exitY=1;exitDx=0;exitDy=0;" edge="1" parent="1" source="B9RGpqmMGsNtSQ1XmZ1p-11">
          <mxGeometry width="50" height="50" relative="1" as="geometry">
            <mxPoint x="-172.75" y="-115.6799999999999" as="sourcePoint" />
            <mxPoint x="-172.75" y="-91.68" as="targetPoint" />
          </mxGeometry>
        </mxCell>
        <mxCell id="zVHzj3ecezakpNuDU_De-2" value="coleta" style="shape=rhombus;perimeter=rhombusPerimeter;whiteSpace=wrap;html=1;align=center;" vertex="1" parent="1">
          <mxGeometry x="1680" y="353" width="120" height="60" as="geometry" />
        </mxCell>
        <mxCell id="B9RGpqmMGsNtSQ1XmZ1p-11" value="" style="ellipse;whiteSpace=wrap;html=1;rotation=-45;" vertex="1" parent="1">
          <mxGeometry x="-177.75" y="-126.68" width="10" height="10" as="geometry" />
        </mxCell>
        <mxCell id="B9RGpqmMGsNtSQ1XmZ1p-12" value="&lt;span style=&quot;font-size: 6px;&quot;&gt;&lt;b&gt;Nome&lt;/b&gt;&lt;/span&gt;" style="text;html=1;align=center;verticalAlign=middle;resizable=0;points=[];autosize=1;strokeColor=none;fillColor=none;rotation=0;" vertex="1" parent="1">
          <mxGeometry x="-192.75" y="-150.56" width="40" height="30" as="geometry" />
        </mxCell>
        <mxCell id="zVHzj3ecezakpNuDU_De-3" value="" style="endArrow=none;html=1;rounded=0;exitX=1;exitY=0.5;exitDx=0;exitDy=0;entryX=0.5;entryY=0;entryDx=0;entryDy=0;" edge="1" parent="1" source="MHSS6djbWjyrjED063CA-7" target="zVHzj3ecezakpNuDU_De-2">
          <mxGeometry relative="1" as="geometry">
            <mxPoint x="1560" y="170" as="sourcePoint" />
            <mxPoint x="1740" y="300" as="targetPoint" />
            <Array as="points">
              <mxPoint x="1740" y="181" />
            </Array>
          </mxGeometry>
        </mxCell>
        <mxCell id="B9RGpqmMGsNtSQ1XmZ1p-14" value="" style="endArrow=none;html=1;rounded=0;entryX=0;entryY=0;entryDx=0;entryDy=0;" edge="1" parent="1" source="B9RGpqmMGsNtSQ1XmZ1p-15" target="MHSS6djbWjyrjED063CA-14">
          <mxGeometry width="50" height="50" relative="1" as="geometry">
            <mxPoint x="-212" y="-94" as="sourcePoint" />
            <mxPoint x="-183" y="-94" as="targetPoint" />
          </mxGeometry>
        </mxCell>
        <mxCell id="zVHzj3ecezakpNuDU_De-4" value="" style="triangle;whiteSpace=wrap;html=1;direction=north;" vertex="1" parent="1">
          <mxGeometry x="1332.2500000000002" y="358" width="27.5" height="27.5" as="geometry" />
        </mxCell>
        <mxCell id="B9RGpqmMGsNtSQ1XmZ1p-15" value="" style="ellipse;whiteSpace=wrap;html=1;direction=east;container=0;rotation=-90;" vertex="1" parent="1">
          <mxGeometry x="-208" y="-121" width="10" height="10" as="geometry" />
        </mxCell>
        <mxCell id="zVHzj3ecezakpNuDU_De-5" value="" style="endArrow=none;html=1;rounded=0;entryX=0.5;entryY=0;entryDx=0;entryDy=0;exitX=0.032;exitY=0.955;exitDx=0;exitDy=0;exitPerimeter=0;" edge="1" parent="1" source="zVHzj3ecezakpNuDU_De-4" target="MHSS6djbWjyrjED063CA-13">
          <mxGeometry relative="1" as="geometry">
            <mxPoint x="1390" y="370" as="sourcePoint" />
            <mxPoint x="1550" y="370" as="targetPoint" />
            <Array as="points">
              <mxPoint x="1436" y="385" />
            </Array>
          </mxGeometry>
        </mxCell>
        <mxCell id="B9RGpqmMGsNtSQ1XmZ1p-19" value="&lt;span style=&quot;font-size: 6px;&quot;&gt;&lt;b&gt;Dócil&lt;/b&gt;&lt;/span&gt;" style="text;html=1;align=center;verticalAlign=middle;resizable=0;points=[];autosize=1;strokeColor=none;fillColor=none;rotation=0;" vertex="1" parent="1">
          <mxGeometry x="-223" y="-146.12" width="40" height="30" as="geometry" />
        </mxCell>
        <mxCell id="zVHzj3ecezakpNuDU_De-6" value="ataca" style="shape=rhombus;perimeter=rhombusPerimeter;whiteSpace=wrap;html=1;align=center;" vertex="1" parent="1">
          <mxGeometry x="-336.25" y="413" width="120" height="60" as="geometry" />
        </mxCell>
        <mxCell id="Y3QKmGrY4lN9iiHL7ZVx-33" value="dano" style="ellipse;whiteSpace=wrap;html=1;align=center;" vertex="1" parent="1">
          <mxGeometry x="325" y="384" width="70" height="28" as="geometry" />
        </mxCell>
        <mxCell id="zVHzj3ecezakpNuDU_De-7" value="" style="endArrow=none;html=1;rounded=0;exitX=0.5;exitY=1;exitDx=0;exitDy=0;entryX=0.5;entryY=0;entryDx=0;entryDy=0;" edge="1" parent="1" source="PZfGzbShFNdAoiEEgzWy-11" target="zVHzj3ecezakpNuDU_De-6">
          <mxGeometry relative="1" as="geometry">
            <mxPoint x="-220" y="120" as="sourcePoint" />
            <mxPoint x="-250" y="160" as="targetPoint" />
          </mxGeometry>
        </mxCell>
        <mxCell id="Y3QKmGrY4lN9iiHL7ZVx-34" value="munição" style="ellipse;whiteSpace=wrap;html=1;align=center;" vertex="1" parent="1">
          <mxGeometry x="300" y="446" width="70" height="28" as="geometry" />
        </mxCell>
        <mxCell id="zVHzj3ecezakpNuDU_De-8" value="" style="endArrow=none;html=1;rounded=0;exitX=0.5;exitY=1;exitDx=0;exitDy=0;" edge="1" parent="1" source="zVHzj3ecezakpNuDU_De-6">
          <mxGeometry relative="1" as="geometry">
            <mxPoint x="-230" y="250" as="sourcePoint" />
            <mxPoint x="295" y="670" as="targetPoint" />
            <Array as="points">
              <mxPoint x="-276" y="760" />
              <mxPoint x="295" y="760" />
            </Array>
          </mxGeometry>
        </mxCell>
        <mxCell id="B9RGpqmMGsNtSQ1XmZ1p-20" value="" style="endArrow=none;html=1;rounded=0;entryX=0.092;entryY=0.004;entryDx=0;entryDy=0;entryPerimeter=0;" edge="1" parent="1" source="B9RGpqmMGsNtSQ1XmZ1p-21">
          <mxGeometry width="50" height="50" relative="1" as="geometry">
            <mxPoint x="155.86" y="-114.13000000000001" as="sourcePoint" />
            <mxPoint x="155.87" y="-85.13000000000001" as="targetPoint" />
          </mxGeometry>
        </mxCell>
        <mxCell id="zVHzj3ecezakpNuDU_De-9" value="" style="triangle;whiteSpace=wrap;html=1;direction=north;" vertex="1" parent="1">
          <mxGeometry x="-157.49999999999977" y="-27.000000000000004" width="27.5" height="27.5" as="geometry" />
        </mxCell>
        <mxCell id="B9RGpqmMGsNtSQ1XmZ1p-21" value="" style="ellipse;whiteSpace=wrap;html=1;" vertex="1" parent="1">
          <mxGeometry x="150.87" y="-119.13000000000001" width="10" height="10" as="geometry" />
        </mxCell>
        <mxCell id="zVHzj3ecezakpNuDU_De-11" value="" style="triangle;whiteSpace=wrap;html=1;direction=north;" vertex="1" parent="1">
          <mxGeometry x="90.00000000000023" y="-12.75" width="27.5" height="27.5" as="geometry" />
        </mxCell>
        <mxCell id="B9RGpqmMGsNtSQ1XmZ1p-22" value="&lt;span style=&quot;font-size: 6px;&quot;&gt;&lt;b&gt;&lt;u&gt;ID&lt;/u&gt;&lt;/b&gt;&lt;/span&gt;" style="text;html=1;align=center;verticalAlign=middle;resizable=0;points=[];autosize=1;strokeColor=none;fillColor=none;rotation=0;" vertex="1" parent="1">
          <mxGeometry x="140.87" y="-144.01" width="30" height="30" as="geometry" />
        </mxCell>
        <mxCell id="B9RGpqmMGsNtSQ1XmZ1p-23" value="" style="endArrow=none;html=1;rounded=0;entryX=0.092;entryY=0.004;entryDx=0;entryDy=0;entryPerimeter=0;" edge="1" parent="1" source="B9RGpqmMGsNtSQ1XmZ1p-24">
          <mxGeometry width="50" height="50" relative="1" as="geometry">
            <mxPoint x="185.86" y="-113.69" as="sourcePoint" />
            <mxPoint x="185.87" y="-84.69" as="targetPoint" />
          </mxGeometry>
        </mxCell>
        <mxCell id="B9RGpqmMGsNtSQ1XmZ1p-24" value="" style="ellipse;whiteSpace=wrap;html=1;" vertex="1" parent="1">
          <mxGeometry x="180.87" y="-118.69" width="10" height="10" as="geometry" />
        </mxCell>
        <mxCell id="B9RGpqmMGsNtSQ1XmZ1p-25" value="&lt;span style=&quot;font-size: 6px;&quot;&gt;&lt;b&gt;Tipo&lt;/b&gt;&lt;/span&gt;" style="text;html=1;align=center;verticalAlign=middle;resizable=0;points=[];autosize=1;strokeColor=none;fillColor=none;rotation=0;" vertex="1" parent="1">
          <mxGeometry x="165.87" y="-143.57" width="40" height="30" as="geometry" />
        </mxCell>
        <mxCell id="B9RGpqmMGsNtSQ1XmZ1p-26" value="" style="endArrow=none;html=1;rounded=0;entryX=0.092;entryY=0.004;entryDx=0;entryDy=0;entryPerimeter=0;" edge="1" parent="1" source="B9RGpqmMGsNtSQ1XmZ1p-27">
          <mxGeometry width="50" height="50" relative="1" as="geometry">
            <mxPoint x="215.86" y="-114.13000000000001" as="sourcePoint" />
            <mxPoint x="215.87" y="-85.13000000000001" as="targetPoint" />
          </mxGeometry>
        </mxCell>
        <mxCell id="B9RGpqmMGsNtSQ1XmZ1p-27" value="" style="ellipse;whiteSpace=wrap;html=1;" vertex="1" parent="1">
          <mxGeometry x="210.87" y="-119.13000000000001" width="10" height="10" as="geometry" />
        </mxCell>
        <mxCell id="B9RGpqmMGsNtSQ1XmZ1p-28" value="&lt;span style=&quot;font-size: 6px;&quot;&gt;&lt;b&gt;Dono&lt;/b&gt;&lt;/span&gt;" style="text;html=1;align=center;verticalAlign=middle;resizable=0;points=[];autosize=1;strokeColor=none;fillColor=none;rotation=0;" vertex="1" parent="1">
          <mxGeometry x="195.87" y="-144.01" width="40" height="30" as="geometry" />
        </mxCell>
        <mxCell id="B9RGpqmMGsNtSQ1XmZ1p-29" value="" style="endArrow=none;html=1;rounded=0;entryX=0.092;entryY=0.004;entryDx=0;entryDy=0;entryPerimeter=0;" edge="1" parent="1" source="B9RGpqmMGsNtSQ1XmZ1p-30">
          <mxGeometry width="50" height="50" relative="1" as="geometry">
            <mxPoint x="524.99" y="-48.44000000000001" as="sourcePoint" />
            <mxPoint x="525" y="-19.440000000000012" as="targetPoint" />
          </mxGeometry>
        </mxCell>
        <mxCell id="B9RGpqmMGsNtSQ1XmZ1p-30" value="" style="ellipse;whiteSpace=wrap;html=1;" vertex="1" parent="1">
          <mxGeometry x="520" y="-53.44000000000001" width="10" height="10" as="geometry" />
        </mxCell>
        <mxCell id="B9RGpqmMGsNtSQ1XmZ1p-31" value="" style="endArrow=none;html=1;rounded=0;entryX=0.092;entryY=0.004;entryDx=0;entryDy=0;entryPerimeter=0;" edge="1" parent="1" source="B9RGpqmMGsNtSQ1XmZ1p-32">
          <mxGeometry width="50" height="50" relative="1" as="geometry">
            <mxPoint x="554.99" y="-48" as="sourcePoint" />
            <mxPoint x="555" y="-19" as="targetPoint" />
          </mxGeometry>
        </mxCell>
        <mxCell id="B9RGpqmMGsNtSQ1XmZ1p-32" value="" style="ellipse;whiteSpace=wrap;html=1;" vertex="1" parent="1">
          <mxGeometry x="550" y="-53" width="10" height="10" as="geometry" />
        </mxCell>
        <mxCell id="B9RGpqmMGsNtSQ1XmZ1p-33" value="" style="endArrow=none;html=1;rounded=0;entryX=0.092;entryY=0.004;entryDx=0;entryDy=0;entryPerimeter=0;" edge="1" parent="1" source="B9RGpqmMGsNtSQ1XmZ1p-34">
          <mxGeometry width="50" height="50" relative="1" as="geometry">
            <mxPoint x="584.99" y="-48.44000000000001" as="sourcePoint" />
            <mxPoint x="585" y="-19.440000000000012" as="targetPoint" />
          </mxGeometry>
        </mxCell>
        <mxCell id="B9RGpqmMGsNtSQ1XmZ1p-34" value="" style="ellipse;whiteSpace=wrap;html=1;" vertex="1" parent="1">
          <mxGeometry x="580" y="-53.44000000000001" width="10" height="10" as="geometry" />
        </mxCell>
        <mxCell id="B9RGpqmMGsNtSQ1XmZ1p-35" value="&lt;span style=&quot;font-size: 6px;&quot;&gt;&lt;b&gt;&lt;u&gt;ID&lt;/u&gt;&lt;/b&gt;&lt;/span&gt;" style="text;html=1;align=center;verticalAlign=middle;resizable=0;points=[];autosize=1;strokeColor=none;fillColor=none;rotation=0;" vertex="1" parent="1">
          <mxGeometry x="507.5" y="-80.35" width="30" height="30" as="geometry" />
        </mxCell>
        <mxCell id="B9RGpqmMGsNtSQ1XmZ1p-36" value="&lt;span style=&quot;font-size: 6px;&quot;&gt;&lt;b&gt;Nome&lt;/b&gt;&lt;/span&gt;" style="text;html=1;align=center;verticalAlign=middle;resizable=0;points=[];autosize=1;strokeColor=none;fillColor=none;rotation=0;" vertex="1" parent="1">
          <mxGeometry x="532.5" y="-79.91" width="40" height="30" as="geometry" />
        </mxCell>
        <mxCell id="B9RGpqmMGsNtSQ1XmZ1p-37" value="&lt;span style=&quot;font-size: 6px;&quot;&gt;&lt;b&gt;Membro&lt;/b&gt;&lt;/span&gt;" style="text;html=1;align=center;verticalAlign=middle;resizable=0;points=[];autosize=1;strokeColor=none;fillColor=none;rotation=0;" vertex="1" parent="1">
          <mxGeometry x="557.5" y="-80.35" width="50" height="30" as="geometry" />
        </mxCell>
        <mxCell id="B9RGpqmMGsNtSQ1XmZ1p-38" value="" style="endArrow=none;html=1;rounded=0;entryX=0.092;entryY=0.004;entryDx=0;entryDy=0;entryPerimeter=0;" edge="1" parent="1" source="B9RGpqmMGsNtSQ1XmZ1p-39">
          <mxGeometry width="50" height="50" relative="1" as="geometry">
            <mxPoint x="1262.49" y="130.56" as="sourcePoint" />
            <mxPoint x="1262.5" y="159.56" as="targetPoint" />
          </mxGeometry>
        </mxCell>
        <mxCell id="B9RGpqmMGsNtSQ1XmZ1p-39" value="" style="ellipse;whiteSpace=wrap;html=1;" vertex="1" parent="1">
          <mxGeometry x="1257.5" y="125.55999999999999" width="10" height="10" as="geometry" />
        </mxCell>
        <mxCell id="B9RGpqmMGsNtSQ1XmZ1p-40" value="" style="endArrow=none;html=1;rounded=0;entryX=0.092;entryY=0.004;entryDx=0;entryDy=0;entryPerimeter=0;" edge="1" parent="1" source="B9RGpqmMGsNtSQ1XmZ1p-41">
          <mxGeometry width="50" height="50" relative="1" as="geometry">
            <mxPoint x="1292.49" y="131" as="sourcePoint" />
            <mxPoint x="1292.5" y="160" as="targetPoint" />
          </mxGeometry>
        </mxCell>
        <mxCell id="B9RGpqmMGsNtSQ1XmZ1p-41" value="" style="ellipse;whiteSpace=wrap;html=1;" vertex="1" parent="1">
          <mxGeometry x="1287.5" y="126" width="10" height="10" as="geometry" />
        </mxCell>
        <mxCell id="B9RGpqmMGsNtSQ1XmZ1p-42" value="" style="endArrow=none;html=1;rounded=0;entryX=0.092;entryY=0.004;entryDx=0;entryDy=0;entryPerimeter=0;" edge="1" parent="1" source="B9RGpqmMGsNtSQ1XmZ1p-43">
          <mxGeometry width="50" height="50" relative="1" as="geometry">
            <mxPoint x="1322.49" y="130.56" as="sourcePoint" />
            <mxPoint x="1322.5" y="159.56" as="targetPoint" />
          </mxGeometry>
        </mxCell>
        <mxCell id="B9RGpqmMGsNtSQ1XmZ1p-43" value="" style="ellipse;whiteSpace=wrap;html=1;" vertex="1" parent="1">
          <mxGeometry x="1317.5" y="125.55999999999999" width="10" height="10" as="geometry" />
        </mxCell>
        <mxCell id="B9RGpqmMGsNtSQ1XmZ1p-44" value="&lt;span style=&quot;font-size: 6px;&quot;&gt;&lt;b&gt;&lt;u&gt;ID&lt;/u&gt;&lt;/b&gt;&lt;/span&gt;" style="text;html=1;align=center;verticalAlign=middle;resizable=0;points=[];autosize=1;strokeColor=none;fillColor=none;rotation=0;" vertex="1" parent="1">
          <mxGeometry x="1245" y="98.65" width="30" height="30" as="geometry" />
        </mxCell>
        <mxCell id="B9RGpqmMGsNtSQ1XmZ1p-45" value="&lt;span style=&quot;font-size: 6px;&quot;&gt;&lt;b&gt;Nome&lt;/b&gt;&lt;/span&gt;" style="text;html=1;align=center;verticalAlign=middle;resizable=0;points=[];autosize=1;strokeColor=none;fillColor=none;rotation=0;" vertex="1" parent="1">
          <mxGeometry x="1270" y="99.09" width="40" height="30" as="geometry" />
        </mxCell>
        <mxCell id="B9RGpqmMGsNtSQ1XmZ1p-46" value="&lt;span style=&quot;font-size: 6px;&quot;&gt;&lt;b&gt;Condição&lt;/b&gt;&lt;/span&gt;" style="text;html=1;align=center;verticalAlign=middle;resizable=0;points=[];autosize=1;strokeColor=none;fillColor=none;rotation=0;" vertex="1" parent="1">
          <mxGeometry x="1295" y="98.65" width="50" height="30" as="geometry" />
        </mxCell>
      </root>
    </mxGraphModel>
  </diagram>
</mxfile>